<svg viewBox="0 0 266.65 151.36" xmlns:xlink="http://www.w3.org/1999/xlink" xmlns="http://www.w3.org/2000/svg" data-name="Layer_2" id="b">
  <defs>
    <style>
      .aa {
        fill: url(#s);
      }

      .aa, .ab, .ac, .ad, .ae, .af, .ag, .ah, .ai, .aj, .ak, .al, .am, .an, .ao, .ap, .aq, .ar, .as, .at, .au, .av, .aw, .ax {
        fill-rule: evenodd;
      }

      .ab {
        fill: url(#r);
      }

      .ac {
        fill: url(#d);
      }

      .ad {
        fill: url(#q);
      }

      .ae {
        fill: url(#e);
      }

      .af {
        fill: url(#o);
      }

      .ag {
        fill: url(#g);
      }

      .ah {
        fill: url(#f);
      }

      .ai {
        fill: url(#l);
      }

      .aj {
        fill: url(#n);
      }

      .ak {
        fill: url(#p);
      }

      .al {
        fill: url(#m);
      }

      .am {
        fill: url(#u);
      }

      .an {
        fill: url(#w);
      }

      .ao {
        fill: url(#v);
      }

      .ap {
        fill: url(#h);
      }

      .aq {
        fill: url(#k);
      }

      .ar {
        fill: url(#j);
      }

      .as {
        fill: url(#i);
      }

      .at {
        fill: url(#x);
      }

      .au {
        fill: url(#y);
      }

      .av {
        fill: url(#z);
      }

      .aw {
        fill: url(#t);
      }

      .ax {
        fill: #575656;
      }
    </style>
    <linearGradient gradientUnits="userSpaceOnUse" y2="46.98" x2="231.87" y1="142.94" x1="231.97" data-name="GradientFill 2" id="d">
      <stop stop-color="#004799" offset="0"></stop>
      <stop stop-color="#009ee3" offset="1"></stop>
    </linearGradient>
    <linearGradient xlink:href="#d" y2="47.06" x2="224.82" y1="142.9" x1="224.91" data-name="GradientFill 2" id="e"></linearGradient>
    <linearGradient xlink:href="#d" y2="47.09" x2="131.21" y1="143.03" x1="131.3" data-name="GradientFill 2" id="f"></linearGradient>
    <linearGradient xlink:href="#d" y2="47.04" x2="173.47" y1="142.99" x1="173.57" data-name="GradientFill 2" id="g"></linearGradient>
    <linearGradient xlink:href="#d" y2="47.04" x2="174.53" y1="142.99" x1="174.62" data-name="GradientFill 2" id="h"></linearGradient>
    <linearGradient xlink:href="#d" y2="47.03" x2="175.69" y1="142.99" x1="175.78" data-name="GradientFill 2" id="i"></linearGradient>
    <linearGradient xlink:href="#d" y2="47.03" x2="176.74" y1="142.99" x1="176.83" data-name="GradientFill 2" id="j"></linearGradient>
    <linearGradient xlink:href="#d" y2="47.03" x2="177.98" y1="142.99" x1="178.08" data-name="GradientFill 2" id="k"></linearGradient>
    <linearGradient xlink:href="#d" y2="47.03" x2="179.28" y1="142.98" x1="179.38" data-name="GradientFill 2" id="l"></linearGradient>
    <linearGradient xlink:href="#d" y2="47.03" x2="180.27" y1="142.98" x1="180.36" data-name="GradientFill 2" id="m"></linearGradient>
    <linearGradient xlink:href="#d" y2="47.03" x2="181.37" y1="142.98" x1="181.46" data-name="GradientFill 2" id="n"></linearGradient>
    <linearGradient xlink:href="#d" y2="47.03" x2="182.49" y1="142.98" x1="182.59" data-name="GradientFill 2" id="o"></linearGradient>
    <linearGradient xlink:href="#d" y2="47.03" x2="183.62" y1="142.98" x1="183.71" data-name="GradientFill 2" id="p"></linearGradient>
    <linearGradient xlink:href="#d" y2="47.13" x2="88.9" y1="142.74" x1="89" data-name="GradientFill 2" id="q"></linearGradient>
    <linearGradient xlink:href="#d" y2="47.16" x2="87.84" y1="142.77" x1="87.94" data-name="GradientFill 2" id="r"></linearGradient>
    <linearGradient xlink:href="#d" y2="47.19" x2="86.58" y1="142.81" x1="86.67" data-name="GradientFill 2" id="s"></linearGradient>
    <linearGradient xlink:href="#d" y2="47.23" x2="85.26" y1="142.84" x1="85.35" data-name="GradientFill 2" id="t"></linearGradient>
    <linearGradient xlink:href="#d" y2="47.26" x2="84.26" y1="142.87" x1="84.35" data-name="GradientFill 2" id="u"></linearGradient>
    <linearGradient xlink:href="#d" y2="47.3" x2="83.14" y1="142.91" x1="83.23" data-name="GradientFill 2" id="v"></linearGradient>
    <linearGradient xlink:href="#d" y2="47.34" x2="82" y1="142.93" x1="82.09" data-name="GradientFill 2" id="w"></linearGradient>
    <linearGradient xlink:href="#d" y2="47.36" x2="80.86" y1="142.97" x1="80.95" data-name="GradientFill 2" id="x"></linearGradient>
    <linearGradient xlink:href="#d" y2="47.28" x2="34.69" y1="142.98" x1="34.79" data-name="GradientFill 2" id="y"></linearGradient>
    <linearGradient xlink:href="#d" y2="47.32" x2="41.71" y1="143.03" x1="41.8" data-name="GradientFill 2" id="z"></linearGradient>
  </defs>
  <g data-name="Layer_1" id="c">
    <g>
      <path d="M34.37,132.82c-2.29-1.7-4.47-1.94-5.82-1.94-1.82,0-3.47.38-4.85,1.79-1.18,1.2-1.7,2.67-1.7,4.41,0,.94.15,2.32,1.18,3.41.76.82,1.82,1.23,2.73,1.56l1.62.56c.56.21,1.76.65,2.29,1.09.41.35.68.76.68,1.41,0,.73-.32,1.26-.71,1.59-.65.56-1.47.68-2.06.68-.91,0-1.7-.24-2.47-.71-.53-.32-1.32-1-1.82-1.5l-2.35,3.23c.73.73,1.88,1.65,2.88,2.14,1.23.62,2.47.82,3.88.82,1.29,0,3.82-.18,5.55-2,1.03-1.06,1.73-2.82,1.73-4.85,0-1.15-.29-2.56-1.44-3.64-.76-.73-1.82-1.18-2.67-1.5l-1.47-.56c-1.32-.5-2-.68-2.47-1.12-.29-.26-.44-.62-.44-1.09,0-.5.21-.94.5-1.23.53-.59,1.29-.68,1.91-.68.56,0,1.82.09,3.29,1.41l2.03-3.29h0ZM52.03,131.32h-4.53v19.6h4.53v-8.7l7.02,8.7h5.82l-8.55-10.31,7.93-9.29h-5.52l-6.7,8.17v-8.17h0ZM81.17,150.92h4.53v-9.14l7.02-10.46h-5.35l-3.94,6.08-3.94-6.08h-5.35l7.02,10.46v9.14h0ZM114.87,132.82c-2.29-1.7-4.47-1.94-5.82-1.94-1.82,0-3.47.38-4.85,1.79-1.18,1.2-1.7,2.67-1.7,4.41,0,.94.15,2.32,1.18,3.41.76.82,1.82,1.23,2.73,1.56l1.62.56c.56.21,1.76.65,2.29,1.09.41.35.68.76.68,1.41,0,.73-.32,1.26-.71,1.59-.65.56-1.47.68-2.06.68-.91,0-1.7-.24-2.47-.71-.53-.32-1.32-1-1.82-1.5l-2.35,3.23c.73.73,1.88,1.65,2.88,2.14,1.23.62,2.47.82,3.88.82,1.29,0,3.82-.18,5.55-2,1.03-1.06,1.73-2.82,1.73-4.85,0-1.15-.29-2.56-1.44-3.64-.76-.73-1.82-1.18-2.67-1.5l-1.47-.56c-1.32-.5-2-.68-2.47-1.12-.29-.26-.44-.62-.44-1.09,0-.5.21-.94.5-1.23.53-.59,1.29-.68,1.91-.68.56,0,1.82.09,3.29,1.41l2.03-3.29h0ZM139.14,135.14v-3.82h-13.05v3.82h4.26v15.78h4.53v-15.78h4.26ZM150.63,131.32v19.6h4.53v-7.73l5.29,7.73h5.52l-6.02-8.02c1.09-.26,2.06-.85,2.73-1.5,1.26-1.23,1.53-2.76,1.53-4,0-2.17-.88-3.59-1.7-4.38-.94-.88-2.5-1.7-5-1.7h-6.88ZM155.15,134.84h1.06c.59,0,1.76.06,2.5.62.38.29.91.88.91,2,0,.97-.41,1.59-.73,1.91-.76.76-1.88.85-2.7.85h-1.03v-5.38h0ZM194.14,131.32h-4.53v11.49c0,.85-.06,2.29-1.03,3.29-.79.85-1.88,1.03-2.73,1.03s-1.94-.18-2.73-1.03c-.97-1-1.03-2.44-1.03-3.29v-11.49h-4.53v11.61c0,1.88.24,4.2,2.17,6.2,1.88,1.94,4.06,2.23,6.11,2.23s4.23-.29,6.11-2.23c1.94-2,2.17-4.32,2.17-6.2v-11.61h0ZM221.7,145.1c-1.73,1.7-3.32,2.03-4.5,2.03-2.41,0-3.82-1.23-4.23-1.65-.88-.85-1.7-2.29-1.7-4.32,0-1.88.76-3.47,1.85-4.53,1.03-1,2.35-1.53,4-1.53,2.09,0,3.58,1.03,4.58,2.09v-5.23c-1.91-.82-3.41-1.09-4.7-1.09-3.06,0-5.58,1.15-7.32,2.82-1.76,1.7-3.06,4.29-3.06,7.38s1.29,5.73,3.06,7.43c1.65,1.62,4.08,2.85,7.7,2.85,1.18,0,2.59-.18,4.32-1.06v-5.2h0ZM245.55,135.14v-3.82h-13.05v3.82h4.26v15.78h4.53v-15.78h4.26Z" class="ax"></path>
      <path d="M250.75,95.65c0-7.49-5.76-13.62-13.09-14.23-.42-7.42-6.57-13.31-14.1-13.31-3.7,0-7.06,1.42-9.58,3.74-1.88-4.63-9.37-9.5-16.81-8.91l.41,2.93c5.14-1.31,12.88,3.99,14.91,7.58.36.64.67,1.3.93,1.99.4-.45.83-.87,1.28-1.27,2.35-2.03,5.41-3.26,8.76-3.26,6.38,0,11.72,4.47,13.06,10.45h-.05c-6.15,0-11.39,3.89-13.4,9.34,2.56-3.89,6.97-6.46,11.98-6.46.61,0,1.21.04,1.8.11,0,1.55-.28,3.04-.77,4.43.7-1.33,1.19-2.79,1.44-4.33,6.04,1.05,10.78,5.88,11.7,11.96.02.17.05.33.07.5.06.54.09,1.1.09,1.66,0,1.59-.26,3.12-.73,4.54,1.12-1.82,1.85-3.92,2.05-6.16,2.27.4,4,2.38,4,4.77,0,.31-.03.61-.08.9-.12.65-.37,1.26-.73,1.79.12,0,.24,0,.37,0,.08,0,.17,0,.25,0,5.53.1,10.23,3.57,12.15,8.44-1.14-5.29-5.51-9.39-10.94-10.12.25-.59.39-1.24.39-1.92,0-2.68-2.17-4.85-4.85-4.85-.17,0-.34,0-.5.03,0-.12,0-.24,0-.36Z" class="ac"></path>
      <path d="M202.72,104.52v2.98c2.84-4.38,7.77-7.27,13.37-7.27s10.96,3.15,13.73,7.84c.23.39.44.79.64,1.2,1,2.08,1.56,4.42,1.56,6.88,0,1.46-.2,2.88-.57,4.23.68-1.81,1.05-3.77,1.05-5.82s-.39-4.12-1.11-5.97c1.74-1.14,3.83-1.8,6.07-1.8,4.07,0,7.64,2.19,9.57,5.46-1.71-3.93-5.63-6.68-10.19-6.68-2.21,0-4.27.64-6,1.75-2.69-5.54-8.36-9.35-14.93-9.35-5.38,0-10.17,2.56-13.2,6.54Z" class="ae"></path>
      <path d="M131.28,109.86h-20.87c-5.86,0-10.68,4.71-10.85,10.53,1.87-3.65,5.67-6.16,10.04-6.16h43.36c4.36,0,8.16,2.51,10.04,6.16-.17-5.82-4.99-10.53-10.85-10.53h-20.87ZM131.28,28.74h11.23c5.86,0,10.09,4.71,10.26,10.53-1.87-3.65-5.09-6.16-9.45-6.16h-24.08c-4.36,0-7.58,2.51-9.45,6.16.17-5.82,4.4-10.53,10.26-10.53h11.23ZM131.28,19.18h-7.77v4.37h18.61c4.36,0,7.58,2.51,9.45,6.16-.17-5.82-4.4-10.53-10.26-10.53h-10.02ZM119.14,23.63v-4.24c-4.74.98-7.99,5.22-8.14,10.32,1.68-3.27,4.44-5.63,8.14-6.08h0ZM133.92,9.63h6.18c5.86,0,10.09,4.71,10.26,10.53-1.87-3.65-5.09-6.16-9.45-6.16h-6.99v-4.37h0ZM129.55,14.01h-7.9c-4.36,0-7.58,2.51-9.45,6.16.17-5.82,4.4-10.53,10.26-10.53h7.09v4.37h0ZM131.28,0h-7.34c-5.86,0-10.09,4.71-10.26,10.53,1.87-3.65,5.09-6.16,9.45-6.16h16.29c4.36,0,7.58,2.51,9.45,6.16-.17-5.82-4.4-10.53-10.26-10.53h-7.34ZM133.67,37.75v4.37h10.06c4.36,0,8.16,2.51,10.04,6.16-.17-5.82-4.99-10.53-10.85-10.53h-9.25ZM129.3,42.13v-4.37h-9.65c-5.86,0-10.68,4.71-10.85,10.53,1.87-3.65,5.67-6.16,10.04-6.16h10.46ZM131.28,47.07h7.01v4.37h-20.63c-4.36,0-8.16,2.51-10.04,6.16.17-5.82,4.99-10.53,10.85-10.53h12.81ZM142.67,47.07h1.43c5.86,0,10.68,4.71,10.85,10.53-1.87-3.65-5.67-6.16-10.04-6.16h-2.24v-4.37h0ZM131.28,55.43h-13.86c-5.86,0-10.68,4.71-10.85,10.53,1.87-3.65,5.67-6.16,10.04-6.16h29.35c4.36,0,8.16,2.51,10.04,6.16-.17-5.82-4.99-10.53-10.85-10.53h-13.86ZM131.28,64.83h15.19c5.86,0,10.68,4.71,10.85,10.53-1.87-3.65-5.67-6.16-10.04-6.16h-25.29v-4.37h9.29ZM117.62,69.2h-2.34c-4.36,0-8.16,2.51-10.04,6.16.17-5.82,4.99-10.53,10.85-10.53h1.53v4.37h0ZM131.28,74.13h-16.64c-5.86,0-10.68,4.71-10.85,10.53,1.87-3.65,5.67-6.16,10.04-6.16h34.9c4.36,0,8.16,2.51,10.04,6.16-.17-5.82-4.99-10.53-10.85-10.53h-16.64ZM134.34,83.09h14.44c5.86,0,10.68,4.71,10.85,10.53-1.87-3.65-5.67-6.16-10.04-6.16h-15.25v-4.37h0ZM129.96,87.46h-16.99c-4.36,0-8.16,2.51-10.04,6.16.17-5.82,4.99-10.53,10.85-10.53h16.18v4.37h0ZM131.28,92.46h-18.53c-5.86,0-10.68,4.71-10.85,10.53,1.87-3.65,5.67-6.16,10.04-6.16h36.96v-4.37h-17.62ZM153.27,93.03v4.12c3.22.78,5.91,2.96,7.39,5.84-.14-4.62-3.2-8.54-7.39-9.96h0ZM131.28,100.88h19.74c5.86,0,10.68,4.71,10.85,10.53-1.87-3.65-5.67-6.16-10.04-6.16h-32.5v-4.37h11.95ZM114.96,105.25h-4.22c-4.36,0-8.16,2.51-10.04,6.16.17-5.82,4.99-10.53,10.85-10.53h3.41v4.37Z" class="ah"></path>
      <path d="M157.88,33.12h22.26c4.36,0,7.58,2.51,9.45,6.16-.17-5.82-4.4-10.53-10.26-10.53h-22l.55,4.37Z" class="ag"></path>
      <path d="M179.74,37.75h-12.08v4.37h12.89c4.36,0,8.16,2.51,10.04,6.16-.17-5.82-4.99-10.53-10.85-10.53h0ZM163.28,37.75h-4.82l.55,4.37h4.27v-4.37Z" class="ap"></path>
      <path d="M191.76,57.61c-.17-5.82-4.99-10.53-10.85-10.53h-21.27l.55,4.37h21.53c4.36,0,8.16,2.51,10.04,6.16Z" class="as"></path>
      <path d="M192.81,65.96c-.17-5.82-4.99-10.53-10.85-10.53h-4.33v4.37h5.14c4.36,0,8.16,2.51,10.04,6.16h0ZM173.25,55.43h-12.57l.55,4.37h12.01v-4.37Z" class="ar"></path>
      <path d="M194.14,75.36c-.17-5.82-4.99-10.53-10.85-10.53h-21.42l.55,4.37h21.68c4.36,0,8.16,2.51,10.04,6.16Z" class="aq"></path>
      <path d="M195.59,84.66c-.17-5.82-4.99-10.53-10.85-10.53h-21.69l.55,4.37h21.95c4.36,0,8.16,2.51,10.04,6.16Z" class="ai"></path>
      <path d="M196.44,93.62c-.17-5.82-4.99-10.53-10.85-10.53h-8.21v4.37h9.02c4.36,0,8.16,2.51,10.04,6.16h0ZM173.01,83.09h-8.84l.55,4.37h8.29v-4.37Z" class="al"></path>
      <path d="M197.48,103c-.17-5.82-4.99-10.53-10.85-10.53h-21.28l.55,4.37h21.54c4.36,0,8.16,2.51,10.04,6.16Z" class="aj"></path>
      <path d="M198.68,111.41c-.16-5.29-4.15-9.67-9.28-10.42v4.28c4.04.27,7.51,2.7,9.28,6.13h0ZM185.03,100.88h-18.62l.55,4.37h18.07v-4.37Z" class="af"></path>
      <path d="M199.81,120.39c-.17-5.82-4.99-10.53-10.85-10.53h-21.42l.55,4.37h21.68c4.36,0,8.16,2.51,10.04,6.16Z" class="ak"></path>
      <path d="M74.89,57.61c.17-5.82,4.99-10.53,10.85-10.53h17.19l-.55,4.37h-17.45c-4.36,0-8.16,2.51-10.04,6.16Z" class="ad"></path>
      <path d="M73.84,65.96c.17-5.82,4.99-10.53,10.85-10.53h4.33v4.37h-5.14c-4.36,0-8.16,2.51-10.04,6.16h0ZM93.39,55.43h8.48l-.55,4.37h-7.93v-4.37Z" class="ab"></path>
      <path d="M72.51,75.36c.17-5.82,4.99-10.53,10.85-10.53h17.34l-.55,4.37h-17.6c-4.36,0-8.16,2.51-10.04,6.16Z" class="aa"></path>
      <path d="M71.06,84.66c.17-5.82,4.99-10.53,10.85-10.53h17.61l-.55,4.37h-17.87c-4.36,0-8.16,2.51-10.04,6.16Z" class="aw"></path>
      <path d="M70.21,93.62c.17-5.82,4.99-10.53,10.85-10.53h8.21v4.37h-9.02c-4.36,0-8.16,2.51-10.04,6.16h0ZM93.63,83.09h4.76l-.55,4.37h-4.21v-4.37Z" class="am"></path>
      <path d="M69.17,103c.17-5.82,4.99-10.53,10.85-10.53h17.19l-.55,4.37h-17.45c-4.36,0-8.16,2.51-10.04,6.16Z" class="ao"></path>
      <path d="M67.96,111.41c.16-5.29,4.15-9.67,9.28-10.42v4.28c-4.04.27-7.52,2.7-9.28,6.13h0ZM81.61,100.88h14.54l-.55,4.37h-13.98v-4.37Z" class="an"></path>
      <path d="M66.83,120.39c.17-5.82,4.99-10.53,10.85-10.53h17.34l-.55,4.37h-17.6c-4.36,0-8.16,2.51-10.04,6.16Z" class="at"></path>
      <path d="M15.89,95.65c0-7.49,5.76-13.62,13.09-14.23.42-7.42,6.57-13.31,14.1-13.31,3.7,0,7.06,1.42,9.58,3.74,1.88-4.63,9.37-9.5,16.81-8.91l-.41,2.93c-5.14-1.31-12.88,3.99-14.91,7.58-.36.64-.67,1.3-.93,1.99-.4-.45-.83-.87-1.28-1.27-2.35-2.03-5.41-3.26-8.76-3.26-6.38,0-11.72,4.47-13.06,10.45h.05c6.15,0,11.39,3.89,13.4,9.34-2.56-3.89-6.97-6.46-11.98-6.46-.61,0-1.21.04-1.8.11,0,1.55.28,3.04.77,4.43-.7-1.33-1.19-2.79-1.44-4.33-6.04,1.05-10.78,5.88-11.7,11.96-.02.17-.05.33-.07.5-.06.54-.09,1.1-.09,1.66,0,1.59.26,3.12.73,4.54-1.12-1.82-1.85-3.92-2.05-6.16-2.27.4-4,2.38-4,4.77,0,.31.03.61.08.9.12.65.37,1.26.73,1.79-.12,0-.24,0-.37,0-.08,0-.17,0-.25,0-5.53.1-10.23,3.57-12.15,8.44,1.14-5.29,5.51-9.39,10.94-10.12-.25-.59-.39-1.24-.39-1.92,0-2.68,2.17-4.85,4.85-4.85.17,0,.34,0,.5.03,0-.12,0-.24,0-.36Z" class="au"></path>
      <path d="M63.93,104.52v2.98c-2.84-4.38-7.77-7.27-13.37-7.27s-10.96,3.15-13.73,7.84c-.23.39-.44.79-.64,1.2-1,2.08-1.56,4.42-1.56,6.88,0,1.46.2,2.88.57,4.23-.68-1.81-1.05-3.77-1.05-5.82s.39-4.12,1.11-5.97c-1.74-1.14-3.83-1.8-6.07-1.8-4.07,0-7.64,2.19-9.57,5.46,1.71-3.93,5.63-6.68,10.19-6.68,2.21,0,4.27.64,6,1.75,2.69-5.54,8.36-9.35,14.93-9.35,5.38,0,10.17,2.56,13.2,6.54Z" class="av"></path>
    </g>
  </g>
</svg>